<svg xmlns="http://www.w3.org/2000/svg" viewBox="0 0 2460 1040" width="2460" height="1040"><g fill="#00F"><path d="M250.288 217.214c-12.63 0-22.9 10.275-22.9 22.904 0 12.63 10.27 22.904 22.9 22.904 12.63 0 22.908-10.274 22.908-22.904s-10.279-22.904-22.908-22.904z"/><path d="M257.079 478.856c-55.127 0-55.127-27.323-55.127-36.304v-15.648c26.177-4.383 51.66-18.778 62.212-36.378 4.592-7.659 2.106-17.596-5.56-22.188-7.659-4.6-17.6-2.106-22.193 5.552-4.576 7.635-18.805 16.19-34.459 20.019v-24.425c0-23.524-12.57-44.806-27.862-58.32 13.682-12.44 27.862-32.054 27.862-56.302V181.79c0-8.977 0-36.3 55.127-36.3 8.93 0 16.176-7.241 16.176-16.176 0-8.935-7.246-16.177-16.176-16.177-55.599 0-87.48 25.023-87.48 68.653v73.072c0 16.956-15.915 33.465-27.213 39.776-6.463 3.61-10.296 10.414-10.01 17.76.295 7.394 4.685 13.915 11.459 17.024 10.388 4.768 25.764 20.802 25.764 40.062v73.068c0 43.634 31.881 68.657 87.48 68.657 8.93 0 16.176-7.241 16.176-16.176s-7.246-16.177-16.176-16.177z"/></g><path fill="#000009" d="M518.237 740.536c-34.99-3.113-52.733-13.122-52.733-29.754 0-8.69 4.263-28.907 43.786-28.907 37.745 0 55.969 13.636 57.064 14.483 7.322 5.94 18.09 4.904 24.138-2.384 6.084-7.334 5.072-18.211-2.257-24.299-2.756-2.283-28.343-22.31-78.945-22.31-57.789 0-78.296 34.16-78.296 63.417 0 21.156 10.936 57.616 84.185 64.129 58.85 5.236 58.85 21.168 58.85 29.728 0 33.154-35.908 38.104-57.316 38.104-35.9 0-63.156-22.504-63.375-22.685-7.263-6.189-18.148-5.325-24.324 1.929-6.184 7.25-5.325 18.14 1.93 24.324 1.482 1.264 36.835 30.941 85.769 30.941 56.643 0 91.826-27.824 91.826-72.613 0-56.07-65.599-61.904-90.302-64.103zm1472.028-92.273c-47.704 0-98.677 30.457-98.677 115.931 0 46.006 22.142 83.886 59.23 101.33 14.432 6.787 29.951 10.107 45.69 10.107 27.913 0 56.483-10.456 80.773-30.563 7.338-6.079 8.366-16.956 2.283-24.294-6.075-7.339-16.952-8.366-24.29-2.288-27.567 22.829-61.951 28.89-89.771 15.81-23.229-10.927-37.265-33.7-39.178-63.092h145.361c9.53 0 17.255-7.726 17.255-17.255 0-63.215-39.658-105.686-98.676-105.686zm-61.698 88.431c6.925-35.007 28.233-53.922 61.698-53.922 34.097 0 57.072 20.242 62.776 53.922h-124.474zm-601.319 106.453c-8.956-3.694-18.013-17.554-18.013-36.894v-76.19c0-27.98-5.99-66.64-57.814-79.23-29.311-7.137-64.377-1.778-91.481 13.964-8.249 4.786-11.046 15.347-6.26 23.587 4.785 8.235 15.35 11.037 23.582 6.255 19.42-11.277 45.345-15.304 66.004-10.274 23.523 5.716 31.46 17.246 31.46 45.698v9.127c-28.265-12.097-61.56-15.397-90.564-7.968-23.06 5.906-40.247 18.173-48.386 34.53-10.616 21.308-10.338 48.206.716 70.196 10.566 20.991 29.177 34.838 52.422 38.983 8.257 1.475 16.699 2.178 25.133 2.178 28.106 0 55.996-7.896 76.219-21.326 6.405 8.631 14.458 15.401 23.805 19.262 2.157.889 4.39 1.31 6.58 1.31 6.783 0 13.211-4.019 15.958-10.675 3.64-8.808-.556-18.897-9.36-22.533zm-132.268-2.186c-15.738-2.81-23.725-12.71-27.651-20.52-6.176-12.28-6.437-27.71-.666-39.308 3.556-7.14 13.06-13.148 26.068-16.48 22.06-5.657 55.46-3.45 81.994 13.4v28.2c0 5.824.71 11.443 1.745 16.918-17.464 14.952-52.372 22.992-81.49 17.79zm638.852 2.186c-8.957-3.699-18.022-17.558-18.022-36.894V581.58c0-9.529-7.726-17.255-17.255-17.255s-17.255 7.726-17.255 17.255v89.333c-16.998-14.428-38.954-23.182-62.945-23.182-53.736 0-97.455 43.718-97.455 97.455v32.867c0 53.74 43.719 97.459 97.455 97.459 28.269 0 53.686-12.173 71.503-31.464 6.913 14.285 17.56 25.532 30.796 30.996 2.157.889 4.39 1.31 6.58 1.31 6.783 0 13.211-4.019 15.958-10.675 3.64-8.808-.556-18.897-9.36-22.533zm-115.477-2.144c-34.712 0-62.945-28.237-62.945-62.95v-32.866c0-34.708 28.233-62.945 62.945-62.945s62.945 28.237 62.945 62.945v32.867c0 34.712-28.233 62.949-62.945 62.949zm-1355.312 2.144c-8.948-3.694-18.013-17.558-18.013-36.894v-76.19c0-27.984-5.99-66.643-57.806-79.23-29.32-7.141-64.377-1.783-91.49 13.964-8.24 4.781-11.045 15.343-6.26 23.582 4.777 8.245 15.351 11.042 23.583 6.26 19.42-11.268 45.327-15.313 66.011-10.274 23.515 5.712 31.452 17.246 31.452 45.698v9.125c-28.256-12.095-61.542-15.393-90.538-7.97-23.068 5.906-40.264 18.169-48.411 34.535-10.616 21.311-10.33 48.213.733 70.199 10.557 20.991 29.168 34.834 52.413 38.98 8.257 1.474 16.699 2.177 25.133 2.177 28.106 0 55.992-7.896 76.212-21.326 6.406 8.63 14.458 15.401 23.804 19.262 2.157.889 4.39 1.31 6.58 1.31 6.782 0 13.21-4.019 15.957-10.67 3.64-8.809-.556-18.898-9.36-22.538zm-132.26-2.186c-15.738-2.81-23.725-12.71-27.651-20.516-6.184-12.284-6.446-27.715-.674-39.308 3.564-7.144 13.067-13.156 26.084-16.488 22.067-5.658 55.457-3.438 81.978 13.4v28.204c0 5.824.71 11.441 1.746 16.916-17.47 14.95-52.395 22.98-81.483 17.792zM752.5 743.737l67.836-66.824c6.79-6.69 6.875-17.613.185-24.4-6.69-6.795-17.609-6.875-24.4-.185l-78.009 76.846V586.615c0-9.529-7.726-17.255-17.255-17.255s-17.255 7.726-17.255 17.255v273.18c0 9.53 7.726 17.255 17.255 17.255 9.53 0 17.255-7.726 17.255-17.255v-82.184l9.803-9.655 98.47 103.719a17.19 17.19 0 0 0 12.511 5.375c4.272 0 8.544-1.571 11.88-4.743 6.909-6.56 7.195-17.483.632-24.391L752.5 743.737zm1590.6-94.421c-8.652-3.985-18.906-.21-22.9 8.446l-73.502 159.372-73.468-158.858c-3.993-8.657-14.23-12.406-22.908-8.421-8.644 4.002-12.419 14.255-8.417 22.904l89.156 192.77a17.253 17.253 0 0 0 15.663 10.013h.008a17.259 17.259 0 0 0 15.663-10.03l89.147-193.3c3.986-8.653.21-18.903-8.442-22.896zm-815.592 95.049h-112.52c-9.528 0-17.254 7.726-17.254 17.255s7.726 17.255 17.255 17.255h112.52c9.528 0 17.254-7.726 17.254-17.255s-7.726-17.255-17.255-17.255zm-487.175 0H927.822c-9.53 0-17.255 7.726-17.255 17.255s7.726 17.255 17.255 17.255h112.51c9.53 0 17.255-7.726 17.255-17.255s-7.726-17.255-17.254-17.255z"/></svg>
