<?xml version="1.0" standalone="no"?>
<!DOCTYPE svg PUBLIC "-//W3C//DTD SVG 20010904//EN"
 "http://www.w3.org/TR/2001/REC-SVG-20010904/DTD/svg10.dtd">
<svg version="1.0" xmlns="http://www.w3.org/2000/svg"
 width="399.000000pt" height="399.000000pt" viewBox="0 0 399.000000 399.000000"
 preserveAspectRatio="xMidYMid meet">
<metadata>
Created by potrace 1.11, written by Peter Selinger 2001-2013
</metadata>
<g transform="translate(0.000000,399.000000) scale(0.100000,-0.100000)"
fill="#000000" stroke="none">
<path d="M2310 3972 c-179 -25 -361 -102 -460 -194 -94 -87 -164 -221 -186
-358 -4 -25 -8 -238 -9 -475 -2 -380 -4 -436 -20 -479 -35 -101 -114 -196
-234 -281 -85 -61 -114 -107 -114 -181 0 -74 38 -135 108 -175 108 -61 193
-159 237 -273 19 -48 21 -78 23 -491 2 -455 4 -488 35 -592 31 -100 70 -164
151 -244 87 -87 228 -158 374 -188 94 -20 110 -22 227 -28 105 -5 120 -4 160
16 105 50 119 188 28 264 -34 29 -54 33 -184 43 -50 3 -99 8 -110 10 -68 13
-84 16 -111 26 -102 35 -177 94 -216 170 -19 36 -23 63 -27 171 -2 71 0 132 4
137 5 4 27 11 49 14 148 20 386 145 490 257 89 95 110 148 91 226 -10 42 -75
100 -121 109 -48 9 -111 -11 -142 -44 -96 -104 -123 -126 -208 -167 -49 -24
-106 -48 -126 -53 l-37 -10 -5 187 c-4 168 -7 194 -32 266 -44 132 -120 254
-212 340 l-32 30 52 55 c92 99 182 249 203 340 4 19 10 42 12 50 3 8 8 227 11
485 6 449 7 472 27 515 50 107 180 182 354 205 25 3 84 7 133 9 130 6 182 45
194 146 7 61 -13 109 -63 147 -33 25 -44 27 -128 28 -50 1 -134 -5 -186 -13z"/>
<path d="M2400 2938 c-187 -52 -223 -300 -59 -410 150 -101 349 12 349 198 0
142 -149 251 -290 212z"/>
</g>
</svg>
